# xmcd
#
# Track frame offsets:
#	150
#	10164
#	24029
#	35521
#	48304
#	62176
#	73236
#	83973
#	95836
#	105731
#	118096
#	131320
#	141115
#	152727
#	162640
#	172645
#
# Disc length: 2469 seconds
#
# Revision: 1
# Processed by: cddbd v1.5.2PL0 Copyright (c) Steve Scherf et al.
# Submitted via: audiograbber 1.83.01
#
DISCID=d209a310
DTITLE=Salomon Burke - This Is It
DYEAR=1957
DGENRE=Soul
TTITLE0=I'A All Alone
TTITLE1=Christmas Presents
TTITLE2=I'M In Love
TTITLE3=Why Do Me That Way
TTITLE4=To Thee
TTITLE5=No Man Walks Alone
TTITLE6=Walking In A Dream
TTITLE7=You Can Run But You Can't Hide
TTITLE8=A Pictures Of You
TTITLE9=I Need You Tonight
TTITLE10=This Is It
TTITLE11=For You And You Alone
TTITLE12=You Are My One Love
TTITLE13=They Always Say
TTITLE14=Don't Cry
TTITLE15=My Heart Is A Chapel
EXTD=
EXTT0=
EXTT1=
EXTT2=
EXTT3=
EXTT4=
EXTT5=
EXTT6=
EXTT7=
EXTT8=
EXTT9=
EXTT10=
EXTT11=
EXTT12=
EXTT13=
EXTT14=
EXTT15=
PLAYORDER=
